<?xml version="1.0" encoding="iso-8859-1"?>
<!-- Generator: Adobe Illustrator 19.0.0, SVG Export Plug-In . SVG Version: 6.00 Build 0)  -->
<svg version="1.1" id="Capa_1" xmlns="http://www.w3.org/2000/svg" xmlns:xlink="http://www.w3.org/1999/xlink" x="0px" y="0px"
	 viewBox="0 0 512 512" style="enable-background:new 0 0 512 512;" xml:space="preserve">
<path style="fill:#17ACE8;" d="M509.974,38.437l-48.713,82.524l-47.415,30.009H98.154L50.74,120.961L2.026,38.437
	c-2.702-4.8-2.702-10.502,0-15.004c2.7-4.8,7.502-7.502,12.904-7.502h482.14c5.402,0,10.204,2.702,12.904,7.502
	C512.676,27.935,512.676,33.637,509.974,38.437z"/>
<path style="fill:#1689FC;" d="M509.974,38.437l-48.713,82.524l-47.415,30.009H256V15.93h241.07c5.402,0,10.204,2.702,12.904,7.502
	C512.676,27.935,512.676,33.637,509.974,38.437z"/>
<polygon style="fill:#FEA832;" points="461.261,120.961 400.643,225.992 353.229,256 158.773,256 111.358,225.992 50.741,120.961 
	"/>
<polygon style="fill:#FE9923;" points="461.261,120.961 400.643,225.992 353.229,256 256,256 256,120.961 "/>
<polygon style="fill:#32D736;" points="400.643,225.992 331.022,346.026 308.516,361.031 210.987,361.031 180.978,346.026 
	111.358,225.992 "/>
<polygon style="fill:#10BB67;" points="400.643,225.992 331.022,346.026 308.516,361.031 256,361.031 256,225.992 "/>
<path style="fill:#EF2E2E;" d="M331.022,346.026v135.039c0,8.403-6.601,15.004-15.004,15.004H195.983
	c-8.403,0-15.004-6.601-15.004-15.004V346.026H331.022z"/>
<path style="fill:#D8123C;" d="M331.022,346.026v135.039c0,8.403-6.601,15.004-15.004,15.004H256V346.026H331.022z"/>
<g>
</g>
<g>
</g>
<g>
</g>
<g>
</g>
<g>
</g>
<g>
</g>
<g>
</g>
<g>
</g>
<g>
</g>
<g>
</g>
<g>
</g>
<g>
</g>
<g>
</g>
<g>
</g>
<g>
</g>
</svg>
