<?xml version="1.0" encoding="iso-8859-1"?>
<!-- Generator: Adobe Illustrator 21.0.0, SVG Export Plug-In . SVG Version: 6.00 Build 0)  -->
<svg xmlns="http://www.w3.org/2000/svg" xmlns:xlink="http://www.w3.org/1999/xlink" version="1.1" id="Capa_1" x="0px" y="0px" viewBox="0 0 512.062 512.062" style="enable-background:new 0 0 512.062 512.062;" xml:space="preserve" width="512" height="512">
<g>
	<polygon style="fill:#EDF5FF;" points="411.159,408.369 411.159,494.48 0,494.48 0,408.369 0.57,406.587 72.399,180.92    338.76,180.92  "/>
	<polygon style="fill:#DAEAFF;" points="411.159,408.369 411.159,494.48 205.579,494.48 205.579,180.92 338.76,180.92  "/>
	<path style="fill:#00A6FF;" d="M411.159,191.237v70.175H274.414v-54.865c-21.724-4.335-44.83-6.543-68.834-6.583h-0.602   c-23.748,0-46.652,2.128-68.232,6.35v55.098H0v-68.625c0-28.155,22.664-53.797,63.817-72.198   c38.062-17.028,88.407-26.405,141.763-26.405c52.721,0,102.641,9.184,140.567,25.867c40.824,17.959,63.905,43.072,64.997,70.713   L411.159,191.237z"/>
	<path style="fill:#006EF5;" d="M411.159,191.237v70.175H274.414v-54.865c-21.724-4.335-44.83-6.543-68.834-6.583V94.183   c52.721,0,102.641,9.184,140.567,25.867c40.824,17.959,63.905,43.072,64.997,70.713L411.159,191.237z"/>
	<path style="fill:#AEADB3;" d="M284.782,364.133c0,43.748-35.455,79.212-79.203,79.212s-79.203-35.464-79.203-79.212   c0-43.739,35.455-79.203,79.203-79.203S284.782,320.394,284.782,364.133z"/>
	<path style="fill:#8B8992;" d="M284.782,364.133c0,43.748-35.455,79.212-79.203,79.212V284.93   C249.327,284.93,284.782,320.394,284.782,364.133z"/>
	<path style="fill:#FF9A00;" d="M482.078,143.193c-0.886-26.905-12.324-51.702-32.208-69.823s-45.638-27.212-72.505-25.604   l-1.794-29.946c35.033-2.099,68.587,9.756,94.506,33.376c25.92,23.621,40.83,55.942,41.984,91.009L482.078,143.193z"/>
	<path style="fill:#FF9A00;" d="M426.679,144.149c-0.382-11.606-5.31-22.297-13.876-30.104c-8.566-7.808-19.664-11.729-31.26-11.029   l-1.794-29.946c19.735-1.181,38.659,5.494,53.261,18.802c14.602,13.307,23.002,31.522,23.653,51.29L426.679,144.149z"/>
</g>















</svg>
